<?xml version="1.0" encoding="UTF-8"?>
<svg width="136px" height="125px" viewBox="0 0 136 125" version="1.1" xmlns="http://www.w3.org/2000/svg" xmlns:xlink="http://www.w3.org/1999/xlink">
    <!-- Generator: Sketch 47.1 (45422) - http://www.bohemiancoding.com/sketch -->
    <title>attack</title>
    <desc>Created with Sketch.</desc>
    <defs></defs>
    <g id="Page-1" stroke="none" stroke-width="1" fill="none" fill-rule="evenodd">
        <g id="Mobile-Copy-3" transform="translate(-16.000000, -394.000000)">
            <g id="attack" transform="translate(16.000000, 394.000000)">
                <rect id="Rectangle-4" fill="#FFFFFF" x="0" y="0" width="136" height="125" rx="4"></rect>
                <g id="Group-19" transform="translate(46.000000, 30.000000)" fill-rule="nonzero">
                    <circle id="Oval" fill="#9AE3C3" cx="22" cy="22" r="22"></circle>
                    <path d="M29.0430938,26.5517656 L14.9569063,26.5517656 C14.2080469,26.5517656 13.5711641,26.005375 13.4572969,25.2652813 L11.96525,15.5674922 C11.2583281,10.9720703 14.8137344,6.82773438 19.4632969,6.82773438 L24.5367891,6.82773438 C29.1862656,6.82773438 32.7417578,10.9720703 32.0348359,15.5674922 L30.5427891,25.2652813 C30.4288359,26.0052891 29.7919531,26.5517656 29.0430938,26.5517656 Z" id="Shape" fill="#FF5050"></path>
                    <rect id="Rectangle-path" fill="#DC3C3C" x="15.1724375" y="26.5517656" width="13.6552109" height="6.8275625"></rect>
                    <rect id="Rectangle-path" fill="#C33232" x="15.1724375" y="26.5517656" width="4.55176563" height="6.8275625"></rect>
                    <path d="M17.4482344,26.5517656 L14.5655469,26.5517656 C14.0052344,26.5517656 13.4904688,26.2429063 13.2268125,25.7485078 L9.12054688,18.0492813 C8.29159375,16.4949297 8.95589063,14.5638281 10.5655859,13.8483125 L10.9850469,13.6619141 C12.7499453,12.8774766 14.7889844,13.9197266 15.186875,15.80975 L17.4482344,26.5517656 Z" id="Shape" fill="#DC3C3C"></path>
                    <path d="M14.1756484,17.9668672 L13.7689063,13.8444453 C12.9584297,13.3596719 11.9358594,13.2392734 10.9849609,13.6618281 L10.5655,13.8482266 C10.3906172,13.9259141 10.2321484,14.0238828 10.0803828,14.1282109 L11.6896484,18.5338828 C12.2078516,19.9525391 14.3239766,19.4698281 14.1756484,17.9668672 Z" id="Shape" fill="#C33232"></path>
                    <g id="Group" transform="translate(14.351562, 28.015625)" fill="#FFFFFF">
                        <path d="M14.476,3.84647656 L0.820875,3.84647656 L0.820875,0.0533671875 L14.4760859,0.0533671875 C14.8950312,0.0533671875 15.2347422,0.393078125 15.2347422,0.812023438 L15.2347422,3.08790625 C15.2346562,3.50676562 14.8949453,3.84647656 14.476,3.84647656 Z" id="Shape"></path>
                        <path d="M14.476,6.88092969 L0.820875,6.88092969 C0.401929687,6.88092969 0.06221875,6.54121875 0.06221875,6.12227344 L0.06221875,6.12227344 C0.06221875,5.70332812 0.401929687,5.36361719 0.820875,5.36361719 L14.4760859,5.36361719 C14.8950312,5.36361719 15.2347422,5.70332812 15.2347422,6.12227344 L15.2347422,6.12227344 C15.2346563,6.54121875 14.8949453,6.88092969 14.476,6.88092969 Z" id="Shape"></path>
                    </g>
                    <g id="Group" transform="translate(14.351562, 28.015625)" fill="#FFEBDC">
                        <rect id="Rectangle-path" x="0.820875" y="0.0533671875" width="4.55176562" height="3.79310937"></rect>
                        <path d="M4.61398437,6.12227344 C4.61398437,5.70332812 4.95352344,5.36361719 5.37264062,5.36361719 L0.820875,5.36361719 C0.40184375,5.36361719 0.06221875,5.70332812 0.06221875,6.12227344 C0.06221875,6.54121875 0.401757812,6.88092969 0.820875,6.88092969 L5.37264062,6.88092969 C4.95352344,6.88092969 4.61398437,6.54121875 4.61398437,6.12227344 Z" id="Shape"></path>
                    </g>
                    <path d="M19.0300859,25.2651953 L17.5380391,15.5674063 C16.8440078,11.0555156 20.2615703,6.98826563 24.7863516,6.84148438 C24.7025625,6.83873438 24.6212656,6.82764844 24.5367031,6.82764844 L19.4632109,6.82764844 C14.8137344,6.82764844 11.2582422,10.9719844 11.9651641,15.5674063 L13.457125,25.2651953 C13.5709922,26.005375 14.207875,26.5516797 14.9567344,26.5516797 L20.5296953,26.5516797 C19.7808359,26.5517656 19.1439531,26.0052891 19.0300859,25.2651953 Z" id="Shape" fill="#DC3C3C"></path>
                    <path d="M29.3269453,18.9658906 C29.2884453,18.9658906 29.2496016,18.9629688 29.2103281,18.9569531 C28.7961953,18.8931875 28.5125156,18.5057813 28.5761094,18.0916484 L29.035875,15.10575 C29.1748359,14.2003984 29.0411172,13.2855078 28.6483828,12.46025 C28.4684297,12.0820391 28.6291328,11.6294063 29.0073437,11.4493672 C29.3847812,11.2700156 29.8381875,11.4301172 30.0182266,11.8083281 C30.5419297,12.9091875 30.7209375,14.1294141 30.5353125,15.3365781 L30.0756328,18.3229063 C30.0177969,18.6977656 29.6947578,18.9658906 29.3269453,18.9658906 Z" id="Shape" fill="#FF7C7C"></path>
                    <path d="M27.3087891,10.6428438 C27.1735234,10.6428438 27.0368828,10.6069219 26.9131328,10.5309531 C26.5100859,10.2839688 26.0730937,10.1022969 25.6141016,9.99092188 C25.2065859,9.8924375 24.9565937,9.48234375 25.0555078,9.07525781 C25.1547656,8.66774219 25.5655469,8.41671875 25.9711719,8.51666406 C26.58425,8.66516406 27.1680234,8.90785156 27.7058203,9.23750781 C28.0633203,9.45647656 28.175125,9.92346094 27.9562422,10.2806172 C27.8134141,10.5143672 27.5641094,10.6428438 27.3087891,10.6428438 Z" id="Shape" fill="#FF9696"></path>
                    <path d="M28.8275625,38.6896641 L15.1724375,38.6896641 C14.7534922,38.6896641 14.4137812,38.3499531 14.4137812,37.9310078 L14.4137812,37.9310078 C14.4137812,37.5120625 14.7534922,37.1723516 15.1724375,37.1723516 L28.8276484,37.1723516 C29.2465937,37.1723516 29.5863047,37.5120625 29.5863047,37.9310078 L29.5863047,37.9310078 C29.5862188,38.3499531 29.2465078,38.6896641 28.8275625,38.6896641 Z" id="Shape" fill="#7DC8AF"></path>
                </g>
                <text font-family="Avenir-Medium, Avenir" font-size="12" font-weight="400" line-spacing="12" letter-spacing="1.5" fill="#95A5A6">
                    <tspan x="41.82" y="100.444031">attac</tspan>
                    <tspan x="76.44" y="100.444031" letter-spacing="1">k</tspan>
                </text>
            </g>
        </g>
    </g>
</svg>