<?xml version="1.0" encoding="UTF-8"?>
<svg width="15px" height="16px" viewBox="0 0 15 16" version="1.1" xmlns="http://www.w3.org/2000/svg" xmlns:xlink="http://www.w3.org/1999/xlink">
    <!-- Generator: Sketch 47.1 (45422) - http://www.bohemiancoding.com/sketch -->
    <title>flaticon1508871388-svg copy 3</title>
    <desc>Created with Sketch.</desc>
    <defs></defs>
    <g id="Page-1" stroke="none" stroke-width="1" fill="none" fill-rule="evenodd">
        <g id="rpg_wantToFight" transform="translate(-232.000000, -331.000000)" fill-rule="nonzero">
            <g id="Group-3" transform="translate(156.000000, 229.000000)">
                <g id="Group" transform="translate(55.000000, 102.000000)">
                    <g id="flaticon1508871388-svg-copy-3" transform="translate(21.000000, 0.000000)">
                        <path d="M0.224290227,10.3762759 C0.224290227,8.24165517 1.7159453,6.5142069 3.55946089,6.5142069 L4.11532266,6.5142069 C5.95883824,6.5142069 7.45049332,8.24165517 7.45049332,10.3762759 C7.45049332,12.3569655 5.83293555,13.9624828 3.83739177,13.9624828 C1.841848,13.9624828 0.224290227,12.3566897 0.224290227,10.3762759 Z" id="Shape" fill="#D13834"></path>
                        <path d="M3.26957897,13.072 C3.24956795,13.072 3.22900106,13.0697931 3.20871211,13.0653793 C2.22038987,12.8457931 1.41661374,12.1288276 1.11088976,11.193931 C1.06364151,11.0491034 1.14340767,10.8935172 1.28959932,10.8463448 C1.4360689,10.7997241 1.59254399,10.8786207 1.63979224,11.0237241 C1.88131418,11.7624828 2.54501314,12.3525517 3.3301679,12.5268966 C3.47997265,12.5602759 3.57419122,12.7075862 3.54083952,12.8562759 C3.51137884,12.9845517 3.39687132,13.072 3.26957897,13.072 Z" id="Shape" fill="#ED3F32"></path>
                        <path d="M1.31600276,9.98951724 C1.29793725,9.98951724 1.27931588,9.98786207 1.26069451,9.984 C1.1103339,9.95393103 1.01278016,9.80827586 1.04307462,9.65903448 C1.11894976,9.28551724 1.25708141,8.93434483 1.45330061,8.61489655 C1.53334471,8.48496552 1.70455014,8.44413793 1.83545559,8.52303448 C1.96636103,8.60248276 2.00777274,8.77213793 1.92800657,8.90234483 C1.76569493,9.16662069 1.65118741,9.45793103 1.58837503,9.76827586 C1.56169366,9.89903448 1.44551855,9.98951724 1.31600276,9.98951724 Z" id="Shape" fill="#ED3F32"></path>
                        <path d="M7.45049332,12.3073103 C7.45049332,10.1726897 8.9421484,8.44524138 10.785664,8.44524138 L11.3415258,8.44524138 C13.1850413,8.44524138 14.6766964,10.1726897 14.6766964,12.3073103 C14.6766964,14.288 13.0591386,15.8935172 11.0635949,15.8935172 C9.06805109,15.8935172 7.45049332,14.2877241 7.45049332,12.3073103 Z" id="Shape" fill="#ED3F32"></path>
                        <path d="M6.06083888,9.27282759 C5.14116557,9.27282759 4.39325355,8.53048276 4.39325355,7.61765517 C4.39325355,7.46537931 4.51776659,7.3417931 4.67118444,7.3417931 C4.82460229,7.3417931 4.94911533,7.46537931 4.94911533,7.61765517 C4.94911533,8.2262069 5.44772334,8.72110345 6.06083888,8.72110345 C6.21425673,8.72110345 6.33876977,8.84468966 6.33876977,8.99696552 C6.33876977,9.14924138 6.21425673,9.27282759 6.06083888,9.27282759 Z" id="Shape" fill="#ED3F32"></path>
                        <path d="M12.7311802,11.2038621 C11.8115069,11.2038621 11.0635949,10.4615172 11.0635949,9.54868966 C11.0635949,9.39641379 11.1881079,9.27282759 11.3415258,9.27282759 C11.4949436,9.27282759 11.6194566,9.39641379 11.6194566,9.54868966 C11.6194566,10.1572414 12.1180647,10.6521379 12.7311802,10.6521379 C12.884598,10.6521379 13.0091111,10.7757241 13.0091111,10.928 C13.0091111,11.0802759 12.884598,11.2038621 12.7311802,11.2038621 Z" id="Shape" fill="#ED7161"></path>
                        <path d="M12.1750405,10.1004138 C12.1294598,10.1004138 12.0830454,10.0891034 12.040244,10.0656552 C11.9062813,9.99172414 11.8576434,9.82372414 11.9324068,9.69048276 C13.1074986,7.59117241 12.9157263,5.82372414 11.1102873,2.94262069 C10.6703227,5.98068966 7.93631651,8.43751724 5.66395357,8.43751724 C5.51053572,8.43751724 5.38602268,8.31393103 5.38602268,8.16165517 C5.38602268,8.00937931 5.51053572,7.8857931 5.66395357,7.8857931 C7.84654484,7.8857931 10.6155703,5.16165517 10.6155703,2.10041379 C10.6155703,1.97903448 10.6958923,1.87144828 10.8129012,1.83641379 C10.9299101,1.80110345 11.0566466,1.84634483 11.1247397,1.94731034 C13.1205614,4.91889655 13.9721416,7.18234483 12.41823,9.95862069 C12.3673687,10.0491034 12.2725942,10.1004138 12.1750405,10.1004138 Z" id="Shape" fill="#4C312C"></path>
                        <path d="M10.785664,1.95641379 C11.9007227,2.76772414 13.6061066,2.33710345 14.4235014,1.23034483 C13.3084427,0.418758621 11.6030587,0.849655172 10.785664,1.95641379 Z" id="Shape" fill="#88C057"></path>
                        <path d="M7.72842421,0.0303448276 C7.93881789,1.38675862 9.45159572,2.27889655 10.8181819,2.07006897 C10.6075103,0.713655172 9.09473246,-0.178482759 7.72842421,0.0303448276 Z" id="Shape" fill="#659C35"></path>
                        <path d="M10.4565938,15.0982069 C10.4365828,15.0982069 10.4160159,15.096 10.3957269,15.0915862 C9.40740471,14.872 8.60362858,14.1547586 8.2979046,13.2198621 C8.25065635,13.0750345 8.33042251,12.9194483 8.47661416,12.8722759 C8.62280581,12.8251034 8.77955883,12.9045517 8.82680708,13.0496552 C9.06832902,13.7884138 9.73202798,14.3784828 10.5171827,14.5531034 C10.6669875,14.5864828 10.7612061,14.734069 10.7278544,14.8824828 C10.6983937,15.0110345 10.5836082,15.0982069 10.4565938,15.0982069 Z" id="Shape" fill="#ED7161"></path>
                    </g>
                </g>
            </g>
        </g>
    </g>
</svg>