<?xml version="1.0" encoding="UTF-8"?>
<svg width="152px" height="141px" viewBox="0 0 152 141" version="1.1" xmlns="http://www.w3.org/2000/svg" xmlns:xlink="http://www.w3.org/1999/xlink">
    <!-- Generator: Sketch 47.1 (45422) - http://www.bohemiancoding.com/sketch -->
    <title>Group 17</title>
    <desc>Created with Sketch.</desc>
    <defs>
        <rect id="path-1" x="0" y="0" width="136" height="125" rx="4"></rect>
        <filter x="-9.2%" y="-9.2%" width="118.4%" height="120.0%" filterUnits="objectBoundingBox" id="filter-2">
            <feOffset dx="0" dy="1" in="SourceAlpha" result="shadowOffsetOuter1"></feOffset>
            <feGaussianBlur stdDeviation="4" in="shadowOffsetOuter1" result="shadowBlurOuter1"></feGaussianBlur>
            <feComposite in="shadowBlurOuter1" in2="SourceAlpha" operator="out" result="shadowBlurOuter1"></feComposite>
            <feColorMatrix values="0 0 0 0 0.4   0 0 0 0 0.466666667   0 0 0 0 0.580392157  0 0 0 0.15 0" type="matrix" in="shadowBlurOuter1"></feColorMatrix>
        </filter>
    </defs>
    <g id="Page-1" stroke="none" stroke-width="1" fill="none" fill-rule="evenodd">
        <g id="Mobile-Copy-3" transform="translate(-8.000000, -387.000000)">
            <g id="Group-17" transform="translate(16.000000, 394.000000)">
                <g id="Rectangle-4">
                    <use fill="black" fill-opacity="1" filter="url(#filter-2)" xlink:href="#path-1"></use>
                    <use fill="#FFFFFF" fill-rule="evenodd" xlink:href="#path-1"></use>
                    <rect stroke="#F4F8FE" stroke-width="1" x="0.5" y="0.5" width="135" height="124" rx="4"></rect>
                </g>
                <text id="attack" font-family="Avenir-Medium, Avenir" font-size="12" font-weight="400" line-spacing="12" letter-spacing="1.5" fill="#95A5A6">
                    <tspan x="41.82" y="100.444031">attac</tspan>
                    <tspan x="76.44" y="100.444031" letter-spacing="1">k</tspan>
                </text>
                <g id="Group-18" transform="translate(46.000000, 30.000000)">
                    <circle id="Oval-2" fill="#FF5377" cx="22" cy="22" r="22"></circle>
                    <g id="flaticon1509030576-svg" transform="translate(14.000000, 14.000000)" fill-rule="nonzero">
                        <polygon id="Shape" fill="#E6E9ED" points="13.1244688 0.9999375 4.7918125 9.228625 6.60425 11.3120625 15.2699063 2.666375 15.7289063 0.45846875"></polygon>
                        <polygon id="Shape" fill="#CCD1D9" points="3.40609375 8.31215625 2.749875 8.999625 7.02021875 13.1347187 7.4166875 12.44725"></polygon>
                        <polygon id="Shape" fill="#ED5564" points="4.1716875 10.7231875 1.4686875 13.4681875 2.45303125 14.3324063 5.24978125 11.7026563"></polygon>
                        <path d="M2.28115625,14.7572187 C2.28115625,15.2449687 1.88565625,15.64 1.398375,15.64 C0.91109375,15.64 0.5155625,15.2449687 0.5155625,14.7572187 C0.5155625,14.2694375 0.9110625,13.8744062 1.398375,13.8744062 C1.88565625,13.8744062 2.28115625,14.2694375 2.28115625,14.7572187 Z" id="Shape" fill="#CCD1D9"></path>
                        <path d="M15.9016875,0.097625 C15.820625,0.0165625 15.7030313,-0.01759375 15.5911875,0.00875 L13.1410625,0.5731875 C13.0800313,0.586875 13.024375,0.618125 12.9799375,0.6620625 L4.632625,9.00940625 L3.69028125,8.0665625 C3.62778125,8.00409375 3.54284375,7.9689375 3.45446875,7.9689375 C3.36609375,7.9689375 3.28115625,8.00409375 3.21865625,8.0665625 L2.51165625,8.7735625 C2.38178125,8.9039375 2.38178125,9.114875 2.51165625,9.24475 L3.92565625,10.65925 L1.2495,13.3354062 C0.9248125,13.3559063 0.6225625,13.4911562 0.39065625,13.7230625 C0.13871875,13.975 3.125e-05,14.3099687 3.125e-05,14.6659375 C3.125e-05,15.021875 0.13871875,15.3568125 0.39065625,15.6087812 C0.64259375,15.8607188 0.9770625,15.999375 1.333,15.999375 C1.68940625,15.999375 2.024375,15.8606875 2.2763125,15.6087812 C2.51459375,15.3705 2.6435,15.063375 2.66303125,14.7504062 L4.1615,13.2519375 C4.1615,13.2519375 4.1615,13.2519375 4.162,13.2514375 L5.10434375,12.3090937 L5.10434375,12.3090937 L5.3396875,12.07375 L6.7541875,13.48775 C6.8166875,13.55025 6.90115625,13.5854062 6.99003125,13.5854062 C7.07840625,13.5854062 7.162875,13.55025 7.225375,13.48775 L7.932375,12.78075 C8.06321875,12.650375 8.06321875,12.4389687 7.932375,12.3090937 L6.99003125,11.3662812 L15.3373125,3.01940625 C15.38125,2.97496875 15.4125,2.9188125 15.4261875,2.85828125 L15.9905938,0.4081875 C16.0169375,0.295875 15.98275,0.1786875 15.9016875,0.097625 Z M3.7879375,12.6830625 L2.845125,12.6830625 L3.121,12.4067187 L4.06384375,12.4067187 L3.7879375,12.6830625 Z M2.27628125,13.7230313 C2.19521875,13.6425 2.10634375,13.5736563 2.01065625,13.517 L2.178625,13.3495313 L3.12096875,13.3495313 L2.48184375,13.9886563 C2.4256875,13.8939375 2.3573125,13.8045938 2.27628125,13.7230313 Z M1.80459375,15.1370625 C1.678625,15.2630313 1.511625,15.332375 1.3329375,15.332375 C1.1551875,15.332375 0.98771875,15.2630313 0.86175,15.1370625 C0.73625,15.0115625 0.6664375,14.844125 0.6664375,14.6659063 C0.6664375,14.4876875 0.73625,14.3206875 0.86175,14.1947188 C0.98771875,14.06875 1.1551875,13.9994063 1.3329375,13.9994063 C1.511625,13.9994063 1.678625,14.06875 1.80459375,14.1947188 C2.06434375,14.4545 2.06434375,14.8773125 1.80459375,15.1370625 Z M4.73028125,11.73975 L3.7879375,11.73975 L4.3973125,11.1304375 L4.86896875,11.6020938 L4.73028125,11.73975 Z M6.9899375,12.7807187 L5.5759375,11.36625 L5.5759375,11.36625 L5.5759375,11.36625 L3.21859375,9.009375 L3.45440625,8.77353125 L4.39725,9.716375 L6.28290625,11.6020625 L6.28290625,11.6020625 L7.22525,12.5449062 L6.9899375,12.7807187 Z M14.79825,2.615125 L6.5183125,10.8950625 L6.047125,10.4234062 L11.8500625,4.62090625 C11.9799375,4.49103125 11.9799375,4.27959375 11.8500625,4.14921875 C11.7191875,4.01934375 11.5083125,4.01934375 11.3784375,4.14921875 L5.5759375,9.95221875 L5.10428125,9.4810625 L13.38425,1.201125 L15.2215938,0.7778125 L14.79825,2.615125 Z" id="Shape" fill="#000000"></path>
                        <path d="M1.33296875,14.3324063 C1.149375,14.3324063 0.99996875,14.4818125 0.99996875,14.6659063 C0.99996875,14.85 1.149375,14.999375 1.33296875,14.999375 C1.51753125,14.999375 1.6669375,14.85 1.6669375,14.6659063 C1.6669375,14.4818125 1.5175,14.3324063 1.33296875,14.3324063 Z" id="Shape" fill="#000000"></path>
                    </g>
                </g>
            </g>
        </g>
    </g>
</svg>