<?xml version="1.0" encoding="UTF-8"?>
<svg width="136px" height="125px" viewBox="0 0 136 125" version="1.1" xmlns="http://www.w3.org/2000/svg" xmlns:xlink="http://www.w3.org/1999/xlink">
    <!-- Generator: Sketch 47.1 (45422) - http://www.bohemiancoding.com/sketch -->
    <title>heal</title>
    <desc>Created with Sketch.</desc>
    <defs></defs>
    <g id="Page-1" stroke="none" stroke-width="1" fill="none" fill-rule="evenodd">
        <g id="Mobile-Copy-3" transform="translate(-168.000000, -394.000000)">
            <g id="heal" transform="translate(168.000000, 394.000000)">
                <rect id="Rectangle-4-Copy" fill="#FFFFFF" x="0" y="0" width="136" height="125" rx="4"></rect>
                <text id="Heal" font-family="Avenir-Medium, Avenir" font-size="12" font-weight="400" line-spacing="12" letter-spacing="1.5" fill="#95A5A6">
                    <tspan x="49.5" y="105">Heal</tspan>
                </text>
                <g id="Group-15" transform="translate(46.000000, 30.000000)">
                    <circle id="Oval-2-Copy" fill="#E2EFFF" cx="22" cy="22" r="22"></circle>
                    <path d="M19.7499618,34.5173125 L15.2500099,34.5173125 C15.1119494,34.5173125 15,34.1776016 15,33.7586563 C15,33.3397109 15.1119494,33 15.2500099,33 L19.7499901,33 C19.8880506,33 20,33.3397109 20,33.7586563 C19.9999717,34.1776016 19.8880223,34.5173125 19.7499618,34.5173125 Z" id="Shape" fill="#CCD8E6" fill-rule="nonzero"></path>
                    <path d="M29.5999388,34.5173125 L22.4000159,34.5173125 C22.179119,34.5173125 22,34.1776016 22,33.7586563 C22,33.3397109 22.179119,33 22.4000159,33 L29.5999841,33 C29.820881,33 30,33.3397109 30,33.7586563 C29.9999547,34.1776016 29.8208357,34.5173125 29.5999388,34.5173125 Z" id="Shape-Copy" fill="#CCD8E6" fill-rule="nonzero"></path>
                    <g id="Group-14" transform="translate(14.000000, 14.000000)" fill-rule="nonzero">
                        <path d="M0.243622642,11.0247931 C0.243622642,8.75675862 1.86384906,6.92134483 3.86626415,6.92134483 L4.47003774,6.92134483 C6.47245283,6.92134483 8.09267925,8.75675862 8.09267925,11.0247931 C8.09267925,13.1292759 6.33569811,14.8351379 4.16815094,14.8351379 C2.00060377,14.8351379 0.243622642,13.1289828 0.243622642,11.0247931 Z" id="Shape" fill="#D13834"></path>
                        <path d="M3.55139623,13.889 C3.52966038,13.889 3.50732075,13.8866552 3.48528302,13.8819655 C2.41177358,13.6486552 1.53871698,12.8868793 1.20664151,11.8935517 C1.15532075,11.7396724 1.24196226,11.5743621 1.40075472,11.5242414 C1.55984906,11.4747069 1.72981132,11.5585345 1.78113208,11.7127069 C2.0434717,12.4976379 2.76437736,13.1245862 3.61720755,13.3098276 C3.77992453,13.3452931 3.88226415,13.5018103 3.84603774,13.6597931 C3.81403774,13.7960862 3.68966038,13.889 3.55139623,13.889 Z" id="Shape" fill="#ED3F32"></path>
                        <path d="M1.42943396,10.6138621 C1.40981132,10.6138621 1.38958491,10.6121034 1.36935849,10.608 C1.20603774,10.5760517 1.10007547,10.4212931 1.13298113,10.2627241 C1.21539623,9.86586207 1.36543396,9.49274138 1.57856604,9.15332759 C1.66550943,9.01527586 1.8514717,8.97189655 1.99366038,9.05572414 C2.13584906,9.14013793 2.18083019,9.32039655 2.09418868,9.45874138 C1.91788679,9.73953448 1.79350943,10.0490517 1.72528302,10.3787931 C1.69630189,10.5177241 1.57011321,10.6138621 1.42943396,10.6138621 Z" id="Shape" fill="#ED3F32"></path>
                        <path d="M8.09267925,13.0765172 C8.09267925,10.8084828 9.71290566,8.97306897 11.7153208,8.97306897 L12.3190943,8.97306897 C14.3215094,8.97306897 15.9417358,10.8084828 15.9417358,13.0765172 C15.9417358,15.181 14.1847547,16.8868621 12.0172075,16.8868621 C9.84966038,16.8868621 8.09267925,15.1807069 8.09267925,13.0765172 Z" id="Shape" fill="#ED3F32"></path>
                        <path d="M6.58324528,9.85237931 C5.58430189,9.85237931 4.77192453,9.06363793 4.77192453,8.09375862 C4.77192453,7.93196552 4.90716981,7.80065517 5.07381132,7.80065517 C5.24045283,7.80065517 5.37569811,7.93196552 5.37569811,8.09375862 C5.37569811,8.74034483 5.91728302,9.26617241 6.58324528,9.26617241 C6.74988679,9.26617241 6.88513208,9.39748276 6.88513208,9.55927586 C6.88513208,9.72106897 6.74988679,9.85237931 6.58324528,9.85237931 Z" id="Shape" fill="#ED3F32"></path>
                        <path d="M13.8285283,11.9041034 C12.8295849,11.9041034 12.0172075,11.1153621 12.0172075,10.1454828 C12.0172075,9.98368966 12.1524528,9.85237931 12.3190943,9.85237931 C12.4857358,9.85237931 12.6209811,9.98368966 12.6209811,10.1454828 C12.6209811,10.792069 13.162566,11.3178966 13.8285283,11.3178966 C13.9951698,11.3178966 14.1304151,11.4492069 14.1304151,11.611 C14.1304151,11.7727931 13.9951698,11.9041034 13.8285283,11.9041034 Z" id="Shape" fill="#ED7161"></path>
                        <path d="M13.2244528,10.7316897 C13.1749434,10.7316897 13.1245283,10.7196724 13.0780377,10.6947586 C12.9325283,10.6162069 12.8796981,10.4377069 12.9609057,10.2961379 C14.237283,8.06562069 14.0289811,6.1877069 12.0679245,3.12653448 C11.5900377,6.35448276 8.62037736,8.96486207 6.15215094,8.96486207 C5.98550943,8.96486207 5.85026415,8.83355172 5.85026415,8.67175862 C5.85026415,8.50996552 5.98550943,8.37865517 6.15215094,8.37865517 C8.52286792,8.37865517 11.530566,5.48425862 11.530566,2.23168966 C11.530566,2.10272414 11.6178113,1.98841379 11.7449057,1.95118966 C11.872,1.91367241 12.0096604,1.96174138 12.0836226,2.06901724 C14.2514717,5.22632759 15.1764528,7.63124138 13.4886038,10.5810345 C13.4333585,10.6771724 13.3304151,10.7316897 13.2244528,10.7316897 Z" id="Shape" fill="#4C312C"></path>
                        <path d="M11.7153208,2.07868966 C12.9264906,2.9407069 14.7788679,2.48317241 15.666717,1.30724138 C14.4555472,0.444931034 12.6031698,0.902758621 11.7153208,2.07868966 Z" id="Shape" fill="#88C057"></path>
                        <path d="M8.39456604,0.0322413793 C8.62309434,1.47343103 10.2662642,2.42132759 11.7506415,2.19944828 C11.5218113,0.758258621 9.87864151,-0.189637931 8.39456604,0.0322413793 Z" id="Shape" fill="#659C35"></path>
                        <path d="M11.3578868,16.0418448 C11.3361509,16.0418448 11.3138113,16.0395 11.2917736,16.0348103 C10.2182642,15.8015 9.34520755,15.039431 9.01313208,14.0461034 C8.96181132,13.8922241 9.04845283,13.7269138 9.20724528,13.6767931 C9.36603774,13.6266724 9.53630189,13.7110862 9.58762264,13.8652586 C9.84996226,14.6501897 10.5708679,15.2771379 11.4236981,15.4626724 C11.5864151,15.4981379 11.6887547,15.6549483 11.6525283,15.8126379 C11.6205283,15.9492241 11.4958491,16.0418448 11.3578868,16.0418448 Z" id="Shape" fill="#ED7161"></path>
                    </g>
                </g>
            </g>
        </g>
    </g>
</svg>