<?xml version="1.0" encoding="UTF-8"?>
<svg width="22px" height="40px" viewBox="0 0 22 40" version="1.1" xmlns="http://www.w3.org/2000/svg" xmlns:xlink="http://www.w3.org/1999/xlink">
    <!-- Generator: Sketch 47.1 (45422) - http://www.bohemiancoding.com/sketch -->
    <title>Group 11</title>
    <desc>Created with Sketch.</desc>
    <defs>
        <filter x="-10.0%" y="-2.6%" width="120.0%" height="110.5%" filterUnits="objectBoundingBox" id="filter-1">
            <feOffset dx="0" dy="1" in="SourceAlpha" result="shadowOffsetOuter1"></feOffset>
            <feGaussianBlur stdDeviation="0.5" in="shadowOffsetOuter1" result="shadowBlurOuter1"></feGaussianBlur>
            <feColorMatrix values="0 0 0 0 0   0 0 0 0 0   0 0 0 0 0  0 0 0 0.25 0" type="matrix" in="shadowBlurOuter1" result="shadowMatrixOuter1"></feColorMatrix>
            <feMerge>
                <feMergeNode in="shadowMatrixOuter1"></feMergeNode>
                <feMergeNode in="SourceGraphic"></feMergeNode>
            </feMerge>
        </filter>
    </defs>
    <g id="Page-1" stroke="none" stroke-width="1" fill="none" fill-rule="evenodd">
        <g id="Mobile" transform="translate(-200.000000, -203.000000)" fill-rule="nonzero">
            <g id="Group-7" transform="translate(-1.000000, 161.000000)">
                <g id="Group-10" transform="translate(61.000000, 42.000000)">
                    <g id="Group-11" filter="url(#filter-1)" transform="translate(141.000000, 0.000000)">
                        <g id="Group" transform="translate(2.962963, 24.530693)" fill="#56441F">
                            <path d="M5.27540741,2.70236436 C5.27540741,4.16991683 4.10377778,12.0833228 2.65792593,12.0833228 C1.21385185,12.0833228 0.0428148148,4.16931485 0.0428148148,2.70236436 C0.0428148148,1.23541386 1.21444444,0.0446217822 2.65792593,0.0446217822 C4.10377778,0.0446217822 5.27540741,1.23541386 5.27540741,2.70236436 Z" id="Shape"></path>
                            <path d="M14.0421481,2.70236436 C14.0421481,4.16991683 12.8705185,12.0833228 11.4246667,12.0833228 C9.98059259,12.0833228 8.80955556,4.16931485 8.80955556,2.70236436 C8.80955556,1.23541386 9.98118519,0.0446217822 11.4246667,0.0446217822 C12.8705185,0.0446217822 14.0421481,1.23541386 14.0421481,2.70236436 Z" id="Shape"></path>
                        </g>
                        <path d="M17.3855556,23.7211802 C17.3855556,33.2272 14.0819259,30.0614614 10.0045926,30.0614614 C5.92844444,30.0614614 2.62362963,33.2272 2.62362963,23.7211802 C2.62362963,18.2859762 5.92962963,13.8802337 10.0045926,13.8802337 C14.0807407,13.8809109 17.3855556,18.2865782 17.3855556,23.7211802 Z" id="Shape" fill="#678206"></path>
                        <path d="M10.0045926,13.8809109 C6.29192593,13.8809109 3.22637037,17.5409505 2.70881481,22.3005069 C3.25148148,28.8820317 6.31118519,26.2835842 10.0045926,26.2835842 C13.6985926,26.2835842 16.7577778,28.8820317 17.3003704,22.3005069 C16.7828148,17.5409505 13.7177778,13.8809109 10.0045926,13.8809109 Z" id="Shape" fill="#7AA30A"></path>
                        <path d="M8.56511111,36.6620238 C8.56511111,37.7858455 7.24644444,37.9340079 5.62148148,37.9340079 C3.99651852,37.9340079 2.67785185,37.7864475 2.67785185,36.6620238 C2.67785185,35.5376 3.99651852,33.9900594 5.62148148,33.9900594 C7.24644444,33.9900594 8.56511111,35.5376752 8.56511111,36.6620238 Z" id="Shape" fill="#F47603"></path>
                        <path d="M8.56511111,36.6620238 C8.56511111,37.7858455 7.24644444,37.9340079 5.62148148,37.9340079 C3.99651852,37.9340079 2.67785185,37.7864475 2.67785185,36.6620238" id="Shape" fill="#DD6503"></path>
                        <path d="M17.3324444,36.6620238 C17.3324444,37.7858455 16.0137778,37.9340079 14.3888148,37.9340079 C12.7638519,37.9340079 11.4451852,37.7864475 11.4451852,36.6620238 C11.4451852,35.5376 12.7638519,33.9900594 14.3888148,33.9900594 C16.0137778,33.9900594 17.3324444,35.5376752 17.3324444,36.6620238 Z" id="Shape" fill="#F47603"></path>
                        <path d="M17.3324444,36.6620238 C17.3324444,37.7858455 16.0137778,37.9340079 14.3888148,37.9340079 C12.7638519,37.9340079 11.4451852,37.7864475 11.4451852,36.6620238" id="Shape" fill="#DD6503"></path>
                        <path d="M19.5566667,9.35010693 C19.5566667,14.091303 15.2797778,16.4746178 10.0057778,16.4746178 C4.73059259,16.4746178 0.452518519,14.091303 0.452518519,9.35010693 C0.452444444,4.60778218 4.73051852,0 10.0057037,0 C15.2797778,0 19.5566667,4.60778218 19.5566667,9.35010693 Z" id="Shape" fill="#EAE6BB"></path>
                        <path d="M19.5566667,9.35010693 C19.5566667,14.091303 15.2797778,16.4746178 10.0057778,16.4746178 C4.73059259,16.4746178 0.452518519,14.091303 0.452518519,9.35010693" id="Shape" fill="#DDD6A6"></path>
                        <ellipse id="Oval" fill="#113E49" cx="5.46281481" cy="10.3844594" rx="1" ry="1"></ellipse>
                        <path d="M6.31696296,10.3826535 C6.31696296,10.8633347 5.93422222,11.2510099 5.46214815,11.2510099 C4.99014815,11.2510099 4.60851852,10.8633347 4.60851852,10.3826535" id="Shape" fill="#000000"></path>
                        <path d="M7.14785185,12.1922059 C7.10237037,12.1922059 7.05562963,12.1755762 7.02007407,12.1382535 C6.60288889,11.7150614 6.04918519,11.482095 5.46103704,11.482095 L5.45985185,11.482095 C4.8717037,11.482095 4.31918519,11.7156634 3.9042963,12.1376515 C3.8337037,12.2093624 3.71992593,12.2111683 3.64992593,12.1382535 C3.57933333,12.0688752 3.57696296,11.953295 3.64762963,11.8809822 C4.13192593,11.3884119 4.77488889,11.1163921 5.45933333,11.1163921 L5.46051852,11.1163921 C6.14666667,11.1163921 6.79022222,11.3866812 7.2757037,11.8797782 C7.34511111,11.9502851 7.34511111,12.0682733 7.2757037,12.1381782 C7.24118519,12.1756515 7.1957037,12.1922059 7.14785185,12.1922059 Z" id="Shape" fill="#EAE6BB"></path>
                        <ellipse id="Oval" fill="#113E49" cx="14.5498519" cy="10.3844594" rx="1" ry="1"></ellipse>
                        <path d="M13.6932593,10.3826535 C13.6932593,10.8633347 14.0748148,11.2510099 14.5480741,11.2510099 C15.0200741,11.2510099 15.4017037,10.8633347 15.4017037,10.3826535" id="Shape" fill="#000000"></path>
                        <path d="M12.8624444,12.1922059 C12.9068148,12.1922059 12.9534815,12.1755762 12.989037,12.1382535 C13.4062222,11.7150614 13.9599259,11.482095 14.5480741,11.482095 L14.5492593,11.482095 C15.1374074,11.482095 15.6911111,11.7156634 16.106,12.1376515 C16.1754074,12.2093624 16.2891852,12.2111683 16.3603704,12.1382535 C16.430963,12.0688752 16.4321481,11.953295 16.3615556,11.8809822 C15.8796296,11.3884119 15.2342963,11.1163921 14.5498519,11.1163921 L14.5486667,11.1163921 C13.8636296,11.1163921 13.2200741,11.3866812 12.7334815,11.8797782 C12.6651852,11.9502851 12.6651852,12.0682733 12.7334815,12.1381782 C12.769037,12.1756515 12.8145926,12.1922059 12.8624444,12.1922059 Z" id="Shape" fill="#EAE6BB"></path>
                        <path d="M12.1114815,12.0992 C12.1114815,12.3724238 11.168,13.2982693 10.0057037,13.2982693 C8.84340741,13.2982693 7.89992593,12.3724238 7.89992593,12.0992 C7.89992593,11.8247723 8.84340741,10.5700198 10.0057037,10.5700198 C11.168,10.5700198 12.1114815,11.8247723 12.1114815,12.0992 Z" id="Shape" fill="#F47603"></path>
                        <path d="M12.1114815,12.0992 C12.1114815,12.3724238 11.168,13.2982693 10.0057037,13.2982693 C8.84340741,13.2982693 7.89992593,12.3724238 7.89992593,12.0992 C7.89992593,11.8247723 8.84340741,12.3849149 10.0057037,12.3849149 C11.168,12.3849149 12.1114815,11.8247723 12.1114815,12.0992 Z" id="Shape" fill="#DD6503"></path>
                        <path d="M16.9117778,21.9454139 C17.263037,20.8660634 16.1812593,19.5359881 14.4967407,18.9705782 C12.8145926,18.406899 4.24503704,16.5090059 3.89266667,17.5854218 C3.54377778,18.6641703 11.5484444,22.3123208 13.2317778,22.876 C14.9139259,23.4408832 16.5616296,23.0235604 16.9117778,21.9454139 Z" id="Shape" fill="#DDD6A6"></path>
                        <path d="M3.09740741,21.9454139 C2.74614815,20.8660634 3.82792593,19.5359881 5.51244444,18.9705782 C7.19459259,18.406899 15.7641481,16.5090059 16.1165185,17.5854218 C16.4654074,18.6641703 8.46074074,22.3123208 6.77740741,22.876 C5.09518519,23.4408832 3.44748148,23.0235604 3.09740741,21.9454139 Z" id="Shape" fill="#EAE6BB"></path>
                        <path d="M13.2865926,18.1022218 C13.222963,17.8550337 13.1792593,17.6197347 13.1454074,17.3909822 C12.9814815,17.4111485 12.8145926,17.4324436 12.6436296,17.4556198 C12.6704444,17.7946851 12.7288148,18.1698693 12.830963,18.5652198 C12.9575556,19.0541782 13.125037,19.4910653 13.3059259,19.8389347 C13.4920741,19.7357703 13.672963,19.6338851 13.8474074,19.5325267 C13.6331852,19.1655446 13.4324444,18.6677069 13.2865926,18.1022218 Z" id="Shape" fill="#7A4E0E"></path>
                        <ellipse id="Oval" fill="#38494C" cx="12.9125926" cy="18.1016198" rx="1.00940741" ry="1.02539802"></ellipse>
                        <ellipse id="Oval" fill="#A3E1EF" cx="12.8344444" cy="17.9860396" rx="1" ry="1"></ellipse>
                        <path d="M12.9557778,1.8664396 L12.9557778,0.499041584 C12.0262963,0.180744554 11.0361481,0 10.0057037,0 C8.97414815,0 7.98340741,0.181346535 7.05274074,0.499643564 L7.05274074,1.86704158 C7.05274074,3.52369109 8.3737037,4.8655802 10.0045185,4.8655802 C11.6348148,4.86505347 12.9557778,3.52308911 12.9557778,1.8664396 Z" id="Shape" fill="#AA1111"></path>
                        <path d="M7.05274074,0.499643564 L7.05274074,0.755710891 C7.05274074,2.4123604 8.3737037,3.7542495 10.0045185,3.7542495 C11.6347407,3.7542495 12.9557037,2.4123604 12.9557037,0.755710891 L12.9557037,0.499041584 C12.0262963,0.180744554 11.0361481,0 10.0057037,0 C8.97414815,0 7.98340741,0.181346535 7.05274074,0.499643564 Z" id="Shape" fill="#D10F0F"></path>
                        <g id="Group" transform="translate(0.000000, 5.869307)" fill="#238403">
                            <path d="M5.4942963,7.1455802 C3.56474074,7.1455802 1.99340741,5.55055842 1.99340741,3.58923168 C1.99340741,1.62790495 3.56474074,0.0328831683 5.4942963,0.0328831683 C7.42622222,0.0328831683 8.99518519,1.62790495 8.99518519,3.58923168 C8.99518519,5.55055842 7.42562963,7.1455802 5.4942963,7.1455802 Z M5.4942963,1.21840792 C4.2077037,1.21840792 3.16037037,2.28173069 3.16037037,3.58930693 C3.16037037,4.89688317 4.2077037,5.96020594 5.4942963,5.96020594 C6.782,5.96020594 7.82822222,4.89688317 7.82822222,3.58930693 C7.82822222,2.28173069 6.782,1.21840792 5.4942963,1.21840792 Z" id="Shape"></path>
                            <path d="M2.35866667,4.18203168 L0.657259259,4.18203168 C0.334592593,4.18203168 0.0737777778,3.91708515 0.0737777778,3.58930693 C0.0737777778,3.26152871 0.334592593,2.99658218 0.657259259,2.99658218 L2.35866667,2.99658218 C2.68133333,2.99658218 2.94214815,3.26152871 2.94214815,3.58930693 C2.94214815,3.91708515 2.68133333,4.18203168 2.35866667,4.18203168 Z" id="Shape"></path>
                            <path d="M14.5148148,7.1455802 C12.5828889,7.1455802 11.0139259,5.55055842 11.0139259,3.58923168 C11.0139259,1.62790495 12.5828889,0.0328831683 14.5148148,0.0328831683 C16.4443704,0.0328831683 18.0157037,1.62790495 18.0157037,3.58923168 C18.0157037,5.55055842 16.4443704,7.1455802 14.5148148,7.1455802 Z M14.5148148,1.21840792 C13.2271111,1.21840792 12.1808889,2.28173069 12.1808889,3.58930693 C12.1808889,4.89688317 13.227037,5.96020594 14.5148148,5.96020594 C15.8014074,5.96020594 16.8487407,4.89688317 16.8487407,3.58930693 C16.8487407,2.28173069 15.802,1.21840792 14.5148148,1.21840792 Z" id="Shape"></path>
                            <path d="M19.3518519,4.18203168 L17.6504444,4.18203168 C17.3277778,4.18203168 17.066963,3.91708515 17.066963,3.58930693 C17.066963,3.26152871 17.3277778,2.99658218 17.6504444,2.99658218 L19.3518519,2.99658218 C19.6757037,2.99658218 19.9353333,3.26152871 19.9353333,3.58930693 C19.9353333,3.91708515 19.6751111,4.18203168 19.3518519,4.18203168 Z" id="Shape"></path>
                            <rect id="Rectangle-path" x="8.46362963" y="1.6629703" width="3.50088889" height="1.1854495"></rect>
                        </g>
                    </g>
                </g>
            </g>
        </g>
    </g>
</svg>