<?xml version="1.0" encoding="UTF-8"?>
<svg width="27px" height="50px" viewBox="0 0 27 50" version="1.1" xmlns="http://www.w3.org/2000/svg" xmlns:xlink="http://www.w3.org/1999/xlink">
    <!-- Generator: Sketch 47.1 (45422) - http://www.bohemiancoding.com/sketch -->
    <title>flaticon1508870957-svg</title>
    <desc>Created with Sketch.</desc>
    <defs></defs>
    <g id="Page-1" stroke="none" stroke-width="1" fill="none" fill-rule="evenodd">
        <g id="rpg_wantToFight" transform="translate(-577.000000, -394.000000)" fill-rule="nonzero">
            <g id="flaticon1508870957-svg" transform="translate(577.000000, 394.000000)">
                <g id="Group" transform="translate(4.000000, 32.277228)" fill="#56441F">
                    <path d="M7.1218,3.55574257 C7.1218,5.48673267 5.5401,15.8991089 3.5882,15.8991089 C1.6387,15.8991089 0.0578,5.48594059 0.0578,3.55574257 C0.0578,1.62554455 1.6395,0.0587128713 3.5882,0.0587128713 C5.5401,0.0587128713 7.1218,1.62554455 7.1218,3.55574257 Z" id="Shape"></path>
                    <path d="M18.9569,3.55574257 C18.9569,5.48673267 17.3752,15.8991089 15.4233,15.8991089 C13.4738,15.8991089 11.8929,5.48594059 11.8929,3.55574257 C11.8929,1.62554455 13.4746,0.0587128713 15.4233,0.0587128713 C17.3752,0.0587128713 18.9569,1.62554455 18.9569,3.55574257 Z" id="Shape"></path>
                </g>
                <path d="M23.4705,31.2120792 C23.4705,43.72 19.0106,39.5545545 13.5062,39.5545545 C8.0034,39.5545545 3.5419,43.72 3.5419,31.2120792 C3.5419,24.060495 8.005,18.2634653 13.5062,18.2634653 C19.009,18.2643564 23.4705,24.0612871 23.4705,31.2120792 Z" id="Shape" fill="#678206"></path>
                <path d="M13.5062,18.2643564 C8.4941,18.2643564 4.3556,23.080198 3.6569,29.3427723 C4.3895,38.0026733 8.5201,34.5836634 13.5062,34.5836634 C18.4931,34.5836634 22.623,38.0026733 23.3555,29.3427723 C22.6568,23.080198 18.519,18.2643564 13.5062,18.2643564 Z" id="Shape" fill="#7AA30A"></path>
                <path d="M11.5629,48.239505 C11.5629,49.7182178 9.7827,49.9131683 7.589,49.9131683 C5.3953,49.9131683 3.6151,49.7190099 3.6151,48.239505 C3.6151,46.76 5.3953,44.7237624 7.589,44.7237624 C9.7827,44.7237624 11.5629,46.760099 11.5629,48.239505 Z" id="Shape" fill="#F47603"></path>
                <path d="M11.5629,48.239505 C11.5629,49.7182178 9.7827,49.9131683 7.589,49.9131683 C5.3953,49.9131683 3.6151,49.7190099 3.6151,48.239505" id="Shape" fill="#DD6503"></path>
                <path d="M23.3988,48.239505 C23.3988,49.7182178 21.6186,49.9131683 19.4249,49.9131683 C17.2312,49.9131683 15.451,49.7190099 15.451,48.239505 C15.451,46.76 17.2312,44.7237624 19.4249,44.7237624 C21.6186,44.7237624 23.3988,46.760099 23.3988,48.239505 Z" id="Shape" fill="#F47603"></path>
                <path d="M23.3988,48.239505 C23.3988,49.7182178 21.6186,49.9131683 19.4249,49.9131683 C17.2312,49.9131683 15.451,49.7190099 15.451,48.239505" id="Shape" fill="#DD6503"></path>
                <path d="M26.4015,12.3027723 C26.4015,18.5411881 20.6277,21.6771287 13.5078,21.6771287 C6.3863,21.6771287 0.6109,18.5411881 0.6109,12.3027723 C0.6108,6.06287129 6.3862,0 13.5077,0 C20.6277,0 26.4015,6.06287129 26.4015,12.3027723 Z" id="Shape" fill="#EAE6BB"></path>
                <path d="M26.4015,12.3027723 C26.4015,18.5411881 20.6277,21.6771287 13.5078,21.6771287 C6.3863,21.6771287 0.6109,18.5411881 0.6109,12.3027723" id="Shape" fill="#DDD6A6"></path>
                <ellipse id="Oval" fill="#113E49" cx="7.3748" cy="13.6637624" rx="1.1532" ry="1.14178218"></ellipse>
                <path d="M8.5279,13.6613861 C8.5279,14.2938614 8.0112,14.8039604 7.3739,14.8039604 C6.7367,14.8039604 6.2215,14.2938614 6.2215,13.6613861" id="Shape" fill="#000000"></path>
                <path d="M9.6496,16.0423762 C9.5882,16.0423762 9.5251,16.020495 9.4771,15.9713861 C8.9139,15.4145545 8.1664,15.1080198 7.3724,15.1080198 L7.3708,15.1080198 C6.5768,15.1080198 5.8309,15.4153465 5.2708,15.9705941 C5.1755,16.0649505 5.0219,16.0673267 4.9274,15.9713861 C4.8321,15.880099 4.8289,15.7280198 4.9243,15.6328713 C5.5781,14.9847525 6.4461,14.6268317 7.3701,14.6268317 L7.3717,14.6268317 C8.298,14.6268317 9.1668,14.9824752 9.8222,15.6312871 C9.9159,15.7240594 9.9159,15.8793069 9.8222,15.9712871 C9.7756,16.0205941 9.7142,16.0423762 9.6496,16.0423762 Z" id="Shape" fill="#EAE6BB"></path>
                <ellipse id="Oval" fill="#113E49" cx="19.6423" cy="13.6637624" rx="1.1532" ry="1.14178218"></ellipse>
                <path d="M18.4859,13.6613861 C18.4859,14.2938614 19.001,14.8039604 19.6399,14.8039604 C20.2771,14.8039604 20.7923,14.2938614 20.7923,13.6613861" id="Shape" fill="#000000"></path>
                <path d="M17.3643,16.0423762 C17.4242,16.0423762 17.4872,16.020495 17.5352,15.9713861 C18.0984,15.4145545 18.8459,15.1080198 19.6399,15.1080198 L19.6415,15.1080198 C20.4355,15.1080198 21.183,15.4153465 21.7431,15.9705941 C21.8368,16.0649505 21.9904,16.0673267 22.0865,15.9713861 C22.1818,15.880099 22.1834,15.7280198 22.0881,15.6328713 C21.4375,14.9847525 20.5663,14.6268317 19.6423,14.6268317 L19.6407,14.6268317 C18.7159,14.6268317 17.8471,14.9824752 17.1902,15.6312871 C17.098,15.7240594 17.098,15.8793069 17.1902,15.9712871 C17.2382,16.0205941 17.2997,16.0423762 17.3643,16.0423762 Z" id="Shape" fill="#EAE6BB"></path>
                <path d="M16.3505,15.92 C16.3505,16.279505 15.0768,17.4977228 13.5077,17.4977228 C11.9386,17.4977228 10.6649,16.279505 10.6649,15.92 C10.6649,15.5589109 11.9386,13.9079208 13.5077,13.9079208 C15.0768,13.9079208 16.3505,15.5589109 16.3505,15.92 Z" id="Shape" fill="#F47603"></path>
                <path d="M16.3505,15.92 C16.3505,16.279505 15.0768,17.4977228 13.5077,17.4977228 C11.9386,17.4977228 10.6649,16.279505 10.6649,15.92 C10.6649,15.5589109 11.9386,16.2959406 13.5077,16.2959406 C15.0768,16.2959406 16.3505,15.5589109 16.3505,15.92 Z" id="Shape" fill="#DD6503"></path>
                <path d="M22.8309,28.8755446 C23.3051,27.4553465 21.8447,25.7052475 19.5706,24.9612871 C17.2997,24.219604 5.7308,21.7223762 5.2551,23.1387129 C4.7841,24.5581188 15.5904,29.3583168 17.8629,30.1 C20.1338,30.8432673 22.3582,30.2941584 22.8309,28.8755446 Z" id="Shape" fill="#DDD6A6"></path>
                <path d="M4.1815,28.8755446 C3.7073,27.4553465 5.1677,25.7052475 7.4418,24.9612871 C9.7127,24.219604 21.2816,21.7223762 21.7573,23.1387129 C22.2283,24.5581188 11.422,29.3583168 9.1495,30.1 C6.8785,30.8432673 4.6541,30.2941584 4.1815,28.8755446 Z" id="Shape" fill="#EAE6BB"></path>
                <path d="M17.9369,23.8187129 C17.851,23.4934653 17.792,23.1838614 17.7463,22.8828713 C17.525,22.9094059 17.2997,22.9374257 17.0689,22.9679208 C17.1051,23.4140594 17.1839,23.9077228 17.3218,24.4279208 C17.4927,25.0712871 17.7188,25.6461386 17.963,26.1038614 C18.2143,25.9681188 18.4585,25.8340594 18.694,25.7006931 C18.4048,25.2178218 18.1338,24.5627723 17.9369,23.8187129 Z" id="Shape" fill="#7A4E0E"></path>
                <ellipse id="Oval" fill="#38494C" cx="17.432" cy="23.8179208" rx="1.3627" ry="1.34920792"></ellipse>
                <ellipse id="Oval" fill="#A3E1EF" cx="17.3265" cy="23.6658416" rx="1" ry="1"></ellipse>
                <path d="M17.4903,2.45584158 L17.4903,0.656633663 C16.2355,0.237821782 14.8988,0 13.5077,0 C12.1151,0 10.7776,0.238613861 9.5212,0.657425743 L9.5212,2.45663366 C9.5212,4.63643564 11.3045,6.40207921 13.5061,6.40207921 C15.707,6.40138614 17.4903,4.63564356 17.4903,2.45584158 Z" id="Shape" fill="#AA1111"></path>
                <path d="M9.5212,0.657425743 L9.5212,0.994356436 C9.5212,3.17415842 11.3045,4.93980198 13.5061,4.93980198 C15.7069,4.93980198 17.4902,3.17415842 17.4902,0.994356436 L17.4902,0.656633663 C16.2355,0.237821782 14.8988,0 13.5077,0 C12.1151,0 10.7776,0.238613861 9.5212,0.657425743 Z" id="Shape" fill="#D10F0F"></path>
                <g id="Group" transform="translate(0.000000, 7.722772)" fill="#238403">
                    <path d="M7.4173,9.40207921 C4.8124,9.40207921 2.6911,7.30336634 2.6911,4.72267327 C2.6911,2.1419802 4.8124,0.0432673267 7.4173,0.0432673267 C10.0254,0.0432673267 12.1435,2.1419802 12.1435,4.72267327 C12.1435,7.30336634 10.0246,9.40207921 7.4173,9.40207921 Z M7.4173,1.60316832 C5.6804,1.60316832 4.2665,3.00227723 4.2665,4.72277228 C4.2665,6.44326733 5.6804,7.84237624 7.4173,7.84237624 C9.1557,7.84237624 10.5681,6.44326733 10.5681,4.72277228 C10.5681,3.00227723 9.1557,1.60316832 7.4173,1.60316832 Z" id="Shape"></path>
                    <path d="M3.1842,5.50267327 L0.8873,5.50267327 C0.4517,5.50267327 0.0996,5.15405941 0.0996,4.72277228 C0.0996,4.29148515 0.4517,3.94287129 0.8873,3.94287129 L3.1842,3.94287129 C3.6198,3.94287129 3.9719,4.29148515 3.9719,4.72277228 C3.9719,5.15405941 3.6198,5.50267327 3.1842,5.50267327 Z" id="Shape"></path>
                    <path d="M19.595,9.40207921 C16.9869,9.40207921 14.8688,7.30336634 14.8688,4.72267327 C14.8688,2.1419802 16.9869,0.0432673267 19.595,0.0432673267 C22.1999,0.0432673267 24.3212,2.1419802 24.3212,4.72267327 C24.3212,7.30336634 22.1999,9.40207921 19.595,9.40207921 Z M19.595,1.60316832 C17.8566,1.60316832 16.4442,3.00227723 16.4442,4.72277228 C16.4442,6.44326733 17.8565,7.84237624 19.595,7.84237624 C21.3319,7.84237624 22.7458,6.44326733 22.7458,4.72277228 C22.7458,3.00227723 21.3327,1.60316832 19.595,1.60316832 Z" id="Shape"></path>
                    <path d="M26.125,5.50267327 L23.8281,5.50267327 C23.3925,5.50267327 23.0404,5.15405941 23.0404,4.72277228 C23.0404,4.29148515 23.3925,3.94287129 23.8281,3.94287129 L26.125,3.94287129 C26.5622,3.94287129 26.9127,4.29148515 26.9127,4.72277228 C26.9127,5.15405941 26.5614,5.50267327 26.125,5.50267327 Z" id="Shape"></path>
                    <rect id="Rectangle-path" x="11.4259" y="2.18811881" width="4.7262" height="1.55980198"></rect>
                </g>
            </g>
        </g>
    </g>
</svg>