<?xml version="1.0" encoding="UTF-8"?>
<svg width="35px" height="40px" viewBox="0 0 35 40" version="1.1" xmlns="http://www.w3.org/2000/svg" xmlns:xlink="http://www.w3.org/1999/xlink">
    <!-- Generator: Sketch 47.1 (45422) - http://www.bohemiancoding.com/sketch -->
    <title>Group 12</title>
    <desc>Created with Sketch.</desc>
    <defs>
        <filter x="-6.1%" y="-2.6%" width="112.1%" height="113.2%" filterUnits="objectBoundingBox" id="filter-1">
            <feOffset dx="0" dy="1" in="SourceAlpha" result="shadowOffsetOuter1"></feOffset>
            <feGaussianBlur stdDeviation="0.5" in="shadowOffsetOuter1" result="shadowBlurOuter1"></feGaussianBlur>
            <feColorMatrix values="0 0 0 0 0   0 0 0 0 0   0 0 0 0 0  0 0 0 0.25 0" type="matrix" in="shadowBlurOuter1" result="shadowMatrixOuter1"></feColorMatrix>
            <feMerge>
                <feMergeNode in="shadowMatrixOuter1"></feMergeNode>
                <feMergeNode in="SourceGraphic"></feMergeNode>
            </feMerge>
        </filter>
    </defs>
    <g id="Page-1" stroke="none" stroke-width="1" fill="none" fill-rule="evenodd">
        <g id="Mobile" transform="translate(-98.000000, -203.000000)" fill-rule="nonzero">
            <g id="Group-7" transform="translate(-1.000000, 161.000000)">
                <g id="Group-10" transform="translate(61.000000, 42.000000)">
                    <g id="Group-12" filter="url(#filter-1)" transform="translate(39.000000, 0.000000)">
                        <path d="M20.0648312,17.8874751 L32.482075,8.53512853 C33.0794113,8.08518981 33.1715816,7.20996655 32.6883336,6.63440893 C28.8256037,2.03435052 22.8534852,-0.659803084 16.3007799,0.139696636 C7.83518209,1.17253053 1.05276894,8.17500146 0.11709206,16.8372268 C-1.12112928,28.2989729 7.62499935,38 18.5878093,38 C24.2344126,38 29.2866466,35.4212906 32.6946506,31.3581453 C33.1752186,30.7852292 33.0767314,29.9126475 32.4823622,29.4650568 L20.0648312,20.1124167 C19.3315844,19.5601436 19.3315844,18.4398461 20.0648312,17.8874751 Z" id="Shape" fill="#FFD782"></path>
                        <path d="M24.5279115,33.6591075 C13.5317403,33.6591075 4.75899616,23.9071958 6.00088955,12.3851149 C6.44970307,8.22046236 8.2505253,4.4472356 10.9254538,1.52 C5.09961441,4.24837556 0.844574282,9.97932143 0.117448385,16.7259091 C-1.12454101,28.2479899 7.64820316,38 18.6443743,38 C24.0163121,38 28.8492896,35.6654106 32.25,31.9397844 C29.8973532,33.0409891 27.2843465,33.6591075 24.5279115,33.6591075 Z" id="Shape" fill="#FFC36E"></path>
                        <ellipse id="Oval" fill="#5B5D6E" cx="21.375" cy="8.74" rx="2.625" ry="2.66"></ellipse>
                        <path d="M22.5881399,10.0273676 C21.2165864,10.0273676 20.1046737,8.9006294 20.1046737,7.5107886 C20.1046737,6.9785709 20.269788,6.48657534 20.5481498,6.08 C19.502426,6.46034802 18.75,7.46403554 18.75,8.65463162 C18.75,10.1708404 19.9629864,11.4 21.4592451,11.4 C22.6342778,11.4 23.6246566,10.6376453 24,9.57787486 C23.5988766,9.8598445 23.1133547,10.0273676 22.5881399,10.0273676 Z" id="Shape" fill="#464655"></path>
                    </g>
                </g>
            </g>
        </g>
    </g>
</svg>