<?xml version="1.0" encoding="UTF-8"?>
<svg width="44px" height="50px" viewBox="0 0 44 50" version="1.1" xmlns="http://www.w3.org/2000/svg" xmlns:xlink="http://www.w3.org/1999/xlink">
    <!-- Generator: Sketch 47.1 (45422) - http://www.bohemiancoding.com/sketch -->
    <title>flaticon1508871317-svg copy</title>
    <desc>Created with Sketch.</desc>
    <defs></defs>
    <g id="Page-1" stroke="none" stroke-width="1" fill="none" fill-rule="evenodd">
        <g id="rpg_wantToFight" transform="translate(-400.000000, -393.000000)" fill-rule="nonzero">
            <g id="flaticon1508871317-svg-copy" transform="translate(400.000000, 393.000000)">
                <path d="M26.7531082,23.5361515 L43.3094334,11.2304323 C44.1058817,10.6384076 44.2287755,9.4867981 43.5844448,8.72948544 C38.4341382,2.67677701 30.4713136,-0.868161952 21.7343733,0.183811363 C10.4469095,1.54280332 1.40369192,10.7565809 0.156122747,22.1542457 C-1.49483904,37.2354907 10.1666658,50 24.7837457,50 C32.3125501,50 39.0488621,46.6069613 43.5928674,41.2607175 C44.2336249,40.5068805 44.1023085,39.3587467 43.3098162,38.7698115 L26.7531082,26.4637062 C25.7754458,25.737031 25.7754458,24.2629553 26.7531082,23.5361515 Z" id="Shape" fill="#FFD782"></path>
                <path d="M32.703882,44.2882993 C18.0423204,44.2882993 6.34532821,31.4568365 8.00118607,16.2962038 C8.59960409,10.8163978 11.0007004,5.85162579 14.5672718,2 C6.79948589,5.58996784 1.12609904,13.1306861 0.156597847,22.0077751 C-1.49938802,37.1684078 10.1976042,50 24.8591657,50 C32.0217494,50 38.4657195,46.9281719 43,42.0260321 C39.8631375,43.4749856 36.3791286,44.2882993 32.703882,44.2882993 Z" id="Shape" fill="#FFC36E"></path>
                <circle id="Oval" fill="#5B5D6E" cx="28.5" cy="11.5" r="3.5"></circle>
                <path d="M30.1175198,13.1939048 C28.2887819,13.1939048 26.8062316,11.7113545 26.8062316,9.88261657 C26.8062316,9.18233013 27.026384,8.53496756 27.3975331,8 C26.0032347,8.50045792 25,9.8210994 25,11.3876732 C25,13.3826848 26.6173152,15 28.6123268,15 C30.179037,15 31.4995421,13.9969017 32,12.6024669 C31.4651688,12.9734796 30.8178063,13.1939048 30.1175198,13.1939048 Z" id="Shape" fill="#464655"></path>
            </g>
        </g>
    </g>
</svg>