<?xml version="1.0" encoding="UTF-8"?>
<svg width="173px" height="104px" viewBox="0 0 173 104" version="1.1" xmlns="http://www.w3.org/2000/svg" xmlns:xlink="http://www.w3.org/1999/xlink">
    <!-- Generator: Sketch 47.1 (45422) - http://www.bohemiancoding.com/sketch -->
    <title>flaticon1508871957-svg</title>
    <desc>Created with Sketch.</desc>
    <defs>
        <path d="M162.033422,98.76075 C162.033422,78.55725 145.576667,62.121 125.346667,62.121 C124.083378,62.121 122.823867,62.19075 121.569644,62.316 C115.207867,45.71325 99.1825333,34.5 81.0159556,34.5 C62.8478667,34.5 46.8248,45.714 40.4630222,62.316 C39.2088,62.19075 37.9492889,62.121 36.6837333,62.121 C16.4567556,62.121 0,78.5565 0,98.76075 L162.033422,98.76075 Z" id="path-1"></path>
        <filter x="-3.6%" y="-6.0%" width="107.3%" height="118.3%" filterUnits="objectBoundingBox" id="filter-2">
            <feMorphology radius="0.375" operator="dilate" in="SourceAlpha" result="shadowSpreadOuter1"></feMorphology>
            <feOffset dx="0" dy="2" in="shadowSpreadOuter1" result="shadowOffsetOuter1"></feOffset>
            <feGaussianBlur stdDeviation="1.5" in="shadowOffsetOuter1" result="shadowBlurOuter1"></feGaussianBlur>
            <feComposite in="shadowBlurOuter1" in2="SourceAlpha" operator="out" result="shadowBlurOuter1"></feComposite>
            <feColorMatrix values="0 0 0 0 0   0 0 0 0 0   0 0 0 0 0  0 0 0 0.15 0" type="matrix" in="shadowBlurOuter1"></feColorMatrix>
        </filter>
    </defs>
    <g id="Page-1" stroke="none" stroke-width="1" fill="none" fill-rule="evenodd">
        <g id="rpg_wantToFight" transform="translate(-555.000000, -70.000000)" fill-rule="nonzero">
            <g id="flaticon1508871957-svg" transform="translate(558.000000, 70.000000)">
                <path d="M121.634622,62.028 C122.888089,61.90275 124.149111,61.833 125.411644,61.833 C136.514533,61.833 146.474267,66.79125 153.207022,74.59875 C163.206044,67.0095 169.660756,55.0515 169.660756,41.59125 C169.660756,18.6525 150.927511,0.057 127.818844,0.057 C107.123422,0.057 89.9504,14.973 86.5851556,34.5645 C102.426889,36.57075 115.925644,47.1255 121.634622,62.028 Z" id="Shape" fill="#FFD21D"></path>
                <g id="Shape">
                    <use fill="black" fill-opacity="1" filter="url(#filter-2)" xlink:href="#path-1"></use>
                    <use stroke="#E2E2E2" stroke-width="0.75" fill="#FFFFFF" fill-rule="evenodd" xlink:href="#path-1"></use>
                </g>
            </g>
        </g>
    </g>
</svg>